# xmcd CD database file generated by freedbAccess_ocx
#
# Track frame offsets:
#       150
#       9226
#       24722
#       42106
#       67476
#       89879
#       107127
#       127486
#       144957
#       161930
#       179656
#       212064
#       239409
#       258186
#       267781
#       279359
#       301831
#
# Disc length: 4286 seconds
#
# Revision: 0
# Processed by: cddbd v1.5.2PL0 Copyright (c) Steve Scherf et al.
# Submitted via: CDnGo 1.95
#
DISCID=0310bc11
DTITLE=The Blues Band - Blues Band Sampler
DYEAR=2003
DGENRE=Blues
TTITLE0=Hey Hey Little Girl (live)
TTITLE1=Down In The Bottom
TTITLE2=Death Letter (live)
TTITLE3=Leaving
TTITLE4=Flatfoot Sam (live)
TTITLE5=Don't Buy The Potion
TTITLE6=Nadine (live)
TTITLE7=When It Itches I Scratch
TTITLE8=Big Boss Man (live)
TTITLE9=Can't Get My Ass In Gear
TTITLE10=Maggie's Farm (live)
TTITLE11=Blue Collar
TTITLE12=Victom Of Love
TTITLE13=Come On In (live)
TTITLE14=Not Me
TTITLE15=The Great Crash
TTITLE16=Bad Boy
EXTD=
EXTT0=
EXTT1=
EXTT2=
EXTT3=
EXTT4=
EXTT5=
EXTT6=
EXTT7=
EXTT8=
EXTT9=
EXTT10=
EXTT11=
EXTT12=
EXTT13=
EXTT14=
EXTT15=
EXTT16=
PLAYORDER=
